<?xml version="1.0" encoding="utf-8"?>
<!-- Generator: Adobe Illustrator 23.0.6, SVG Export Plug-In . SVG Version: 6.00 Build 0)  -->
<svg version="1.1" id="Layer_1" xmlns="http://www.w3.org/2000/svg" xmlns:xlink="http://www.w3.org/1999/xlink" x="0px" y="0px"
	 viewBox="0 0 612 792" style="enable-background:new 0 0 612 792;" xml:space="preserve">
<style type="text/css">
	.st0{fill:none;stroke:#000000;}
	.st1{font-family:'MyriadPro-Regular';}
	.st2{font-size:36px;}
</style>
<polyline class="st0" points="58.84,90.65 60.05,91.9 61.32,93.15 62.62,94.39 63.98,95.63 65.37,96.87 66.48,97.82 67.58,98.74 
	68.67,99.63 69.77,100.49 70.86,101.33 71.96,102.14 73.06,102.92 74.16,103.68 75.27,104.41 76.39,105.12 77.51,105.8 
	78.64,106.45 79.78,107.08 80.92,107.69 82.08,108.27 83.23,108.81 84.2,109.26 85.15,109.67 85.34,109.75 84.75,110.21 
	83.37,111.27 82,112.37 80.61,113.49 79.21,114.65 76.39,117 68.84,124.05 66.53,126.45 65.45,127.58 64.36,128.75 62.24,131.06 
	60.16,133.43 58.11,135.84 56.12,138.28 54.16,140.75 52.25,143.26 50.39,145.81 48.56,148.38 46.79,150.99 45.06,153.63 
	43.38,156.3 41.74,159 40.15,161.73 38.61,164.49 37.11,167.28 35.66,170.09 34.26,172.94 32.91,175.8 31.6,178.69 30.35,181.61 
	29.14,184.55 27.98,187.52 26.88,190.51 25.82,193.51 24.81,196.55 23.86,199.6 22.95,202.67 22.1,205.76 21.29,208.87 20.54,212 
	19.85,215.1 18.83,219.89 18.29,223.2 17.92,225.57 17.57,227.93 17.25,230.27 16.97,232.59 16.71,234.9 16.49,237.22 16.29,239.55 
	16.12,241.88 15.9,245.07 15.77,250.31 15.74,252.8 15.74,255.56 15.79,258.31 15.87,260.77 16.11,265.89 16.33,268.6 16.54,271.02 
	16.79,273.47 17.06,275.91 17.36,278.36 17.69,280.79 18.04,283.23 18.43,285.66 18.84,288.08 19.28,290.5 19.75,292.91 
	20.25,295.32 20.77,297.72 21.32,300.12 21.9,302.5 22.51,304.89 23.14,307.23 24.17,311 25.43,315.14 26.86,319.42 27.45,321.17 
	28.07,322.95 28.7,324.73 29.36,326.52 30.03,328.31 30.72,330.1 31.43,331.9 32.16,333.7 32.91,335.5 33.67,337.3 34.45,339.11 
	35.25,340.92 36.07,342.73 36.9,344.54 37.75,346.35 38.61,348.15 40.22,351.48 45.72,361.8 47.72,365.22 48.78,367.03 
	49.87,368.85 50.98,370.67 52.11,372.48 53.25,374.29 54.4,376.09 55.57,377.89 56.76,379.68 57.96,381.46 59.18,383.23 60.41,385 
	61.66,386.76 62.92,388.52 64.19,390.26 65.48,392 66.79,393.73 68.1,395.45 69.43,397.17 70.78,398.87 72.13,400.57 73.5,402.25 
	74.89,403.93 76.28,405.6 77.69,407.26 79.11,408.9 80.54,410.54 81.99,412.17 83.45,413.78 84.91,415.38 86.39,416.98 
	87.88,418.56 89.37,420.11 91.71,422.53 101.53,432.21 105.43,435.72 108.21,438.2 110.88,440.55 113.46,442.79 115.99,444.94 
	118.49,447.03 121.01,449.09 123.57,451.14 126.2,453.21 130.23,456.36 135.31,460.17 139.26,463.02 142.82,465.55 146.58,468.17 
	150.48,470.83 154.44,473.46 158.32,476.02 164.05,479.58 166.72,481.23 169.76,483.07 172.8,484.9 175.48,486.48 181.24,489.84 
	185.31,492.09 189.47,494.37 193.82,496.7 198.19,499.01 202.4,501.18 206.95,503.51 213.89,506.87 217.08,508.4 220.65,510.08 
	224.16,511.72 227.2,513.1 233.56,515.98 237.59,517.72 240.37,518.92 243.11,520.08 245.82,521.2 248.47,522.29 251.09,523.33 
	253.67,524.34 256.21,525.3 258.71,526.23 261.17,527.12 263.6,527.98 266,528.79 268.37,529.57 270.71,530.32 273.02,531.02 
	275.31,531.69 277.57,532.33 279.81,532.92 282.02,533.49 284.22,534.02 286.39,534.51 288.55,534.97 290.7,535.39 292.82,535.78 
	294.94,536.13 297.03,536.45 299.12,536.73 301.2,536.99 303.26,537.2 305.32,537.39 307.37,537.54 309.41,537.66 311.4,537.74 
	314.02,537.83 315.6,537.88 320.05,537.67 322.5,537.53 324.99,537.33 327.43,537.08 328.7,536.92 329.92,536.76 331.15,536.58 
	332.38,536.39 333.6,536.18 334.82,535.96 336.04,535.72 337.26,535.46 338.48,535.19 339.7,534.91 340.92,534.61 342.14,534.29 
	343.37,533.96 344.63,533.6 347.06,532.86 349.53,532.05 352.03,531.18 354.56,530.24 357.12,529.24 359.68,528.19 362.53,527 
	374.32,521.4 378.02,519.52 381.75,517.6 385.47,515.66 389.15,513.7 392.8,511.72 396.42,509.72 400.01,507.7 403.57,505.66 
	407.12,503.6 410.64,501.51 414.14,499.4 417.62,497.26 421.08,495.09 424.53,492.9 427.97,490.67 431.4,488.42 434.8,486.14 
	438.05,483.95 442.48,480.85 445.79,478.5 449.09,476.13 452.35,473.75 455.58,471.36 458.78,468.95 461.95,466.51 465.1,464.06 
	468.23,461.58 471.34,459.08 474.43,456.55 477.51,453.99 480.58,451.39 483.65,448.76 486.71,446.1 489.77,443.39 492.81,440.66 
	498.08,435.89 502.14,432.01 504.03,430.19 506.21,428.06 510.34,423.98 514.6,419.74 517.67,416.54 520.22,413.86 522.78,411.12 
	525.34,408.36 527.88,405.58 530.38,402.79 532.84,400.01 535.25,397.26 537.57,394.55 540.88,390.67 549.64,379.69 552.23,376.18 
	554.27,373.36 556.27,370.56 558.18,367.79 560.03,365.05 561.81,362.34 563.53,359.64 565.18,356.96 566.77,354.29 568.3,351.63 
	569.77,348.98 571.18,346.33 572.54,343.67 573.85,341.01 575.11,338.34 576.32,335.66 577.47,333 579.22,328.86 580.3,325.92 
	581.37,322.92 582.4,319.89 583.37,316.87 584.29,313.83 585.15,310.79 585.95,307.74 586.71,304.67 587.41,301.59 588.06,298.48 
	588.65,295.35 589.2,292.18 589.7,288.99 590.15,285.75 590.55,282.48 590.91,279.16 591.22,275.82 591.54,272.13 591.78,265.46 
	591.89,261.97 591.91,260.31 591.92,258.71 591.91,257.11 591.89,255.44 591.78,251.9 591.54,245.13 591.22,241.19 590.93,237.84 
	590.59,234.46 590.2,231.08 589.77,227.7 589.29,224.32 588.76,220.95 588.19,217.59 587.58,214.23 586.92,210.88 586.22,207.54 
	585.47,204.21 584.68,200.89 583.84,197.59 582.96,194.3 582.04,191.03 581.08,187.81 580.02,184.32 576.37,174.06 574.77,170.26 
	573.6,167.52 572.38,164.81 571.13,162.14 569.84,159.54 568.52,156.98 567.17,154.48 565.78,152.03 564.36,149.66 563.61,148.45 
	562.87,147.28 562.12,146.12 561.36,144.97 560.59,143.84 559.81,142.71 559.01,141.6 558.21,140.5 557.4,139.41 556.57,138.33 
	555.73,137.26 554.89,136.2 554.03,135.15 553.16,134.11 552.28,133.08 551.4,132.09 549.51,129.94 549.37,129.79 549.9,129.66 
	551.32,129.22 552.63,128.76 559.11,126.42 562.49,118.18 561.08,112.84 560.77,111.7 560.43,110.52 560.07,109.35 559.7,108.19 
	559.31,107.03 558.9,105.88 558.47,104.73 558.03,103.6 557.57,102.47 557.09,101.34 556.6,100.22 556.08,99.11 555.55,98.01 
	555,96.91 554.44,95.82 553.85,94.73 553.25,93.65 552.63,92.58 552,91.52 551.34,90.46 550.67,89.41 549.98,88.37 549.28,87.33 
	548.56,86.3 547.82,85.28 547.06,84.26 546.29,83.25 545.5,82.25 544.69,81.25 543.87,80.26 543.03,79.27 542.19,78.32 
	539.98,75.82 532.6,68.79 529.94,66.65 528.81,65.76 527.54,64.77 526.28,63.8 525.17,62.98 522.63,61.12 514.67,56.14 511.81,54.6 
	510.36,53.84 508.69,53.01 506.92,52.16 505.07,51.3 503.22,50.45 501.39,49.64 499.65,48.9 498.05,48.25 496.39,47.61 
	494.75,46.99 493.09,46.4 491.43,45.82 489.75,45.25 488.06,44.7 486.36,44.17 484.65,43.66 482.92,43.16 481.18,42.68 
	479.43,42.22 477.66,41.77 475.88,41.33 474.09,40.92 472.28,40.52 470.46,40.13 468.62,39.76 466.77,39.41 464.9,39.07 
	463.01,38.74 461.11,38.44 459.19,38.14 457.25,37.86 455.3,37.6 453.33,37.35 451.34,37.12 449.33,36.9 447.3,36.69 445.25,36.5 
	443.19,36.32 441.1,36.15 439.01,36 434.73,35.71 427.5,35.49 423.73,35.39 421.95,35.37 420.24,35.36 418.54,35.37 416.78,35.4 
	413.14,35.49 406.16,35.72 402.22,36.02 398.61,36.31 396.77,36.48 394.96,36.67 393.17,36.86 391.39,37.07 389.63,37.29 
	387.88,37.52 386.14,37.76 384.41,38.02 382.7,38.29 381,38.58 379.3,38.88 377.62,39.19 375.95,39.51 374.29,39.85 372.64,40.2 
	371,40.57 369.37,40.95 367.75,41.34 366.13,41.75 364.53,42.18 362.93,42.61 361.35,43.06 359.76,43.53 358.19,44.01 356.63,44.5 
	355.07,45.01 353.51,45.54 351.97,46.07 350.43,46.63 348.92,47.18 345.55,48.45 335.36,53.11 332.32,54.76 331.85,55.02 
	332.44,53.42 333.07,51.76 333.72,50.12 334.37,48.54 335.05,46.99 336.44,43.9 336.94,42.04 337.11,41.3 337.26,40.34 
	337.38,38.99 337.39,37.63 337.31,36.34 337.16,35.07 336.93,33.78 336.59,32.41 336.14,31.08 335.69,30.04 335.26,29.15 
	334.8,28.29 334.3,27.46 333.77,26.66 333.21,25.88 332.62,25.13 332.01,24.41 331.37,23.72 330.71,23.05 330.03,22.41 329.33,21.8 
	328.6,21.21 327.86,20.65 327.1,20.11 326.32,19.6 325.52,19.11 324.71,18.65 323.87,18.22 323.02,17.81 322.16,17.43 321.27,17.08 
	320.37,16.76 319.46,16.46 318.53,16.19 317.58,15.96 316.62,15.75 315.64,15.58 314.65,15.45 313.64,15.35 312.62,15.29 
	311.57,15.26 310.21,15.29 308.78,15.39 307.32,15.58 305.85,15.87 304.43,16.24 303.07,16.68 301.79,17.17 300.51,17.72 
	299.41,18.26 298.34,18.83 297.31,19.45 296.31,20.1 295.35,20.78 294.42,21.5 293.52,22.25 292.66,23.03 291.84,23.84 
	291.05,24.67 290.3,25.52 289.57,26.4 288.89,27.3 288.23,28.21 287.61,29.15 287.02,30.11 286.46,31.08 285.93,32.07 285.43,33.08 
	284.97,34.1 284.54,35.14 284.13,36.19 283.76,37.26 283.42,38.34 283.11,39.43 282.83,40.53 282.58,41.64 282.36,42.77 
	282.17,43.9 282.02,45.05 281.89,46.2 281.8,47.4 281.74,48.82 281.72,50.31 281.74,51.85 281.8,53.42 281.83,53.96 280.55,53.2 
	278.76,52.17 276.96,51.15 275.13,50.14 273.28,49.14 271.42,48.15 269.54,47.18 267.65,46.23 265.74,45.28 263.81,44.35 
	261.88,43.44 259.93,42.54 257.97,41.65 256,40.78 254.02,39.93 252.03,39.09 250.03,38.27 248.03,37.46 246.02,36.68 244,35.91 
	241.98,35.16 239.95,34.42 237.92,33.71 235.89,33.02 233.85,32.34 231.82,31.69 229.78,31.05 227.74,30.44 225.7,29.84 
	222.12,28.84 218.56,27.9 215.01,27.01 211.48,26.17 207.95,25.39 204.42,24.66 200.88,23.99 197.33,23.36 193.76,22.78 
	190.16,22.26 186.52,21.78 182.85,21.34 179.13,20.95 175.35,20.61 171.52,20.3 167.64,20.04 163.5,19.78 143.67,19.78 
	139.61,20.04 136.09,20.28 132.6,20.56 129.16,20.87 125.77,21.22 122.42,21.61 119.11,22.03 115.83,22.49 112.59,22.99 
	109.37,23.53 106.18,24.11 103,24.74 99.84,25.4 96.7,26.11 93.56,26.86 90.42,27.65 87.32,28.48 83.42,29.55 73.11,32.82 
	65.64,35.56 63.77,36.3 62.79,36.7 61.83,37.11 60.89,37.53 59.95,38 59.01,38.5 58.1,39.04 57.24,39.61 56.41,40.2 55.6,40.82 
	54.81,41.49 54.05,42.18 53.33,42.9 52.65,43.64 52,44.39 51.39,45.17 50.81,45.96 50.26,46.77 49.74,47.6 49.25,48.44 48.79,49.3 
	48.36,50.17 47.96,51.05 47.59,51.96 47.24,52.9 46.78,54.29 46.39,55.74 46.07,57.2 45.83,58.67 45.66,60.16 45.56,61.65 
	45.55,63.15 45.61,64.64 45.74,66.13 45.96,67.61 46.24,69.08 46.59,70.54 47.01,71.99 47.5,73.42 48.05,74.83 48.66,76.23 
	49.32,77.61 50.05,78.97 50.82,80.32 51.65,81.65 52.53,82.97 53.47,84.27 54.45,85.57 55.47,86.85 56.55,88.12 57.67,89.39 
	58.84,90.65 "/>
<path class="st0" d="M341.37,507.04l-0.1,0.28c-0.09,0.25-0.07,0.25,0.2,0l0.3-0.28l3.44-4.6l3.27-4.6
	c5.74-8.07,10.72-15.79,15.86-24.58l2.64-4.51l7.92-14.91l2.32-4.84c21.59-45.14,34.52-95.92,38.42-150.93l0.39-5.52l0.41-7.92
	l0.19-5.71c0.24-7.32,0.24-16.22,0-23.11l-0.19-5.43l-0.2-3.31c-2.22-35.98-10.39-65.78-24.97-91.13
	c-5.74-9.98-13.22-20.12-21.08-28.55l-1.71-1.84l-2.77-2.75c-10.93-10.83-24.12-20.01-37.73-26.25l-3.93-1.8l-5.43-2.1l-0.15,0.14
	l2.59,2.04c1.43,1.12,3.74,3.03,5.15,4.25l2.55,2.21l4.03,3.85c11.68,11.18,21.66,23.93,30.58,39.1l1.46,2.49l5.24,9.94l3.39,7.32
	l1.99,4.65l1.43,3.59c0.78,1.97,2.05,5.37,2.81,7.55l1.39,3.96l0.8,2.52c2.72,8.59,5.14,18.24,7.07,28.23l0.39,2.03l0.69,4.14
	c1.96,11.72,3.23,24.33,3.83,38.02l0.19,4.23l0.26,13.63l-0.44,16.57l-0.29,5.62c-2.06,39.45-8.25,78.28-18.54,116.28l-1.75,6.44
	l-1.5,5.13c-1.71,5.83-4.04,13.32-5.93,18.99l-1.28,3.87l-1.97,5.62c-5.58,15.92-12.07,32-19.13,47.46L341.37,507.04"/>
<path class="st0" d="M529.07,126.78c0,0.05,0.04,0.09,0.1,0.09c0.05,0,0.1-0.04,0.1-0.09s-0.04-0.09-0.1-0.09
	C529.12,126.69,529.07,126.73,529.07,126.78"/>
<path class="st0" d="M100.37,102.56c0.81,0.09,2.67,0.14,4.14,0.1c4.15-0.12,8.35-1.02,12.95-2.79l1.67-0.64l6.09-2.85l4.91-2.54
	c13.94-7.22,27.42-12.54,41.54-16.38l3.63-0.99l2.26-0.56c12.72-3.13,26.56-5.14,40.75-5.92l3.73-0.2l14.73,0l3.53,0.2
	c17.76,0.99,34.51,3.88,50.2,8.65l3.07,0.93h0.22c0.14,0,0.22-0.4,0.22-1.08c0-1.53-0.86-3.06-2.64-4.73l-1.38-1.29l-6.87-4.62
	l-2.16-1.39c-16.91-10.84-38.13-20.32-58.62-26.18c-18.45-5.28-35.18-8.1-55.48-9.36l-3.73-0.23l-19.05,0l-3.63,0.23
	c-18.41,1.17-33.95,3.67-49.88,8.04l-3.63,1l-9.82,3.12l-7.06,2.58l-1.67,0.67c-2.43,0.97-3.49,1.52-4.74,2.44
	c-2.31,1.7-4.22,4.4-5.33,7.54c-3.55,10.08,1.34,20.71,15,32.6c5.31,4.62,10.06,7.82,15.12,10.17
	C92.67,101.04,96.18,102.07,100.37,102.56"/>
<path class="st0" d="M320.12,92.16c0,0.05,0.04,0.09,0.1,0.09c0.05,0,0.1-0.04,0.1-0.09c0-0.05-0.04-0.09-0.1-0.09
	C320.16,92.07,320.12,92.11,320.12,92.16"/>
<path class="st0" d="M536.04,119.87l1.18,0.16l3.24-0.06c3.55-0.06,5.14-0.34,8.06-1.4l1.59-0.57l0.21-0.53l-0.52-1.97
	c-2.92-11.07-8.33-20.94-16.57-30.24l-1.88-2.12l-6.7-6.38l-2.26-1.82c-1.24-1-3.23-2.53-4.42-3.4l-2.16-1.58l-7.27-4.55l-2.45-1.32
	c-3.1-1.67-9.12-4.44-12.57-5.8c-16.01-6.3-33.7-9.94-55.38-11.42l-4.03-0.27l-6.97-0.21c-5.33-0.16-8.54-0.16-13.65,0l-6.68,0.22
	l-3.63,0.27c-18.86,1.41-34.8,4.74-49.98,10.44l-2.95,1.11l-9.44,4.32l-2.65,1.44c-6.32,3.44-14.33,8.83-18.01,12.13
	c-0.46,0.41-0.87,0.71-0.91,0.66l-0.08-0.08l-0.5-2.12c-0.77-3.26-1.28-6.06-1.72-9.48c-0.2-1.57,3.39-13.63,7.36-22.47l1.07-2.38
	l0.23-0.86c0.32-1.18,0.12-3.44-0.42-4.79c-1.95-4.89-7.82-8.6-13.64-8.61c-2.17-0.01-3.76,0.36-5.94,1.35
	c-6.87,3.16-11.6,11.1-12.22,20.52c-0.18,2.68,0.03,6.96,0.49,10.3l0.31,2.22c1.16,2.8,5.32,18.29,9.07,21.76
	c2.16,1.99,5.02,3.47,8.31,4.27l1.77,0.43l8.44-0.01l1.96-0.33c1.08-0.18,3.38-0.66,5.11-1.07l3.14-0.73l14.53-4.56l3.1-0.84
	c12.76-3.45,25.48-5.44,39.46-6.19l4.06-0.22l16.22,0.2l3.63,0.3c4.71,0.38,8.15,0.75,12.27,1.31c24.87,3.39,49.02,11.7,69.81,24.03
	l3.24,1.92l10.02,6.6l7.54,4.68l2.27,1.22c6.17,3.32,11.1,5.23,15.92,6.16L536.04,119.87"/>
<path class="st0" d="M311.87,526.86c0.81,0.03,1.96,0.07,2.55,0.08l1.08,0.03l3.89-0.18c12.1-0.57,22.48-3.07,35.58-8.56l2.55-1.07
	l11.39-5.41l3.53-1.8c19.7-10.03,37.75-20.64,55.58-32.66l3.14-2.12l4.32-3.03c17.52-12.29,33.25-24.85,49.27-39.34l5.13-4.64
	l3.93-3.76c2.16-2.07,5.79-5.62,8.08-7.9l4.15-4.14l2.97-3.09c6.67-6.95,13.52-14.52,19.5-21.54l3.18-3.73l8.52-10.68l2.44-3.31
	c10.86-14.75,18.3-27.46,24.04-41.06l1.63-3.87l0.98-2.67c5.64-15.37,8.86-30.15,10.35-47.5l0.29-3.41l0.23-6.38
	c0.18-4.94,0.18-7.85,0-12.89l-0.23-6.51l-0.3-3.68c-1.39-17.3-4.69-34.69-9.74-51.28l-0.98-3.22l-3.48-9.76l-1.47-3.5
	c-5.92-14.13-12.81-25.42-21.53-35.26l-1.88-2.12l-6.68-6.4l-4.49-3.63l-0.15,0.14l2.49,2.89l2.28,2.85
	c20.41,33.14,33.41,68.06,39.16,109.78l0.2,3.18l0.12,5.47c0.07,3.19,0.03,7.7-0.11,10.81l-0.23,5.34l-0.29,3.41
	c-0.16,1.87-0.43,4.65-0.6,6.17l-0.31,2.76l-0.67,4.42c-0.88,23.63-8.48,43.14-20.07,63c-5.48,9.38-2.42,6.36-10.33,16.26
	l-13.68,17.69l-3.62,4.43c-1.6,1.87-7.41,7.47-9.13,9.74l-7.01,8.37l-4.13,4.24c-1.7,1.74-7.82,8.56-10.29,9.66l-15.15,14.48
	l-4.43,4.15c-5.48,4.77-9.01,7.57-13.99,11.61l-7.76,5.55c-7.55,5.89-15.13,9.59-23.81,15.75l-21.28,13.66l-7.68,4.37l-9.78,6.78
	l-3.88,2.17c-2.08,1.13-4.24,1.41-7.46,3.5l-5.74,2.79l-11.39,5.77l-3.22,1.48c-6.96,3.51-7.79,4.02-11.25,5.2l-7.72,3.61
	l-1.56,0.17l-0.41-0.51c1.15-2.34,0.83-6.14,0.83-8.17v-0.41v-0.41l-1.02,1.44c-3.06,4.3-8.61,7.59-15.08,8.91
	c-6.91,1.41-14.84,0.52-29.04-0.25l-2.65-0.85l-9.82-3.5l-8.85-3.32c-4.05-1.52-10.72-4.11-14.83-5.76l-7.46-2.99l-10.96-4.93
	l-7.95-3.54l-12.71-5.92l-3.34-1.66c-16.07-6.12-27.62-14.16-40.46-22.09l-4.81-2.97l-3.34-2.18
	c-16.04-8.73-28.88-18.32-40.16-30.01l-3.76-2.97l-10.96-8.36l-6.98-7l-4.02-4.23l-2.97-3.29c-1.64-1.81-4.12-4.63-5.51-6.26
	l-2.54-2.97l-6.75-8.47l-2.13-2.84c-9.16-12.24-17.49-25.72-24.15-39.05l-1.52-3.04l-2.01-4.42
	c-10.01-21.95-16.08-44.47-18.06-67.02l-0.29-3.31l-0.23-5.16c-0.13-2.97-0.17-7.07-0.1-9.67l0.13-4.51l0.19-2.95
	c0.39-5.94,1.07-11.86,2.07-17.95l0.5-3.04l0.96-4.51c7.34-34.38,24.35-65.09,48.74-88.01l3.43-3.22l3.03-1.17
	c5.36-4.51,11.16-10.09,15.67-11.67l1.82-0.96l1.65-1.72l0.1-0.12c0.17-0.13-1.03-1.4-1.53-1.64c-1.86-0.88-4.42-0.3-7.63,1.73
	l-1.53,0.97l-3.15,2.22c-3.64,2.57-6.8,5-10.42,8.01l-2.55,2.13l-7.1,6.64l-2.09,2.17c-21.9,22.72-37.15,51.72-43.93,83.54
	l-0.96,4.51l-0.5,3.04c-1.01,6.16-1.66,11.76-2.07,17.77l-0.2,2.95l-0.12,4.97c-0.07,2.84-0.03,7.06,0.1,9.85l0.22,4.88l0.2,2.49
	c1.02,12.46,3.2,24.79,6.49,36.83l0.98,3.59l1.18,3.87l1.38,4.14c2.99,8.99,6.76,18.21,11.26,27.52l1.51,3.12l5.31,9.96l1.88,3.22
	c10.93,18.74,24.64,36.81,40.1,52.84l2.22,2.3l9.54,9.39l3.7,3.33c7.5,6.75,13.21,11.56,20.19,17.01l3.93,3.07l4.91,3.68l3.83,2.76
	c4.48,3.23,9.6,6.76,14.83,10.2l3.73,2.46l5.58,3.47c3.07,1.91,8.1,4.95,11.19,6.75l5.62,3.28l3.93,2.17
	c5.27,2.91,11.43,6.19,16.79,8.93l4.42,2.26l6.8,3.3c3.74,1.81,9.62,4.57,13.06,6.12l6.26,2.82l3.93,1.7
	C271.83,520.58,292.27,526.18,311.87,526.86"/>
<path class="st0" d="M126.23,184.06c6.27-0.39,12.86-0.59,19.76-0.59l11.29-0.29v175.26l-19.76,0.29l-20.07,0.59V184.65
	L126.23,184.06"/>
<path class="st0" d="M188.64,358.73V183.18h37.01l20.39,32.93c13.59,21.56,20.7,32.35,21.33,32.35c0.42,0,7.53-10.78,21.33-32.35
	l20.39-32.35c4.18,0,10.45-0.1,18.82-0.29c8.36-0.2,14.64-0.29,18.82-0.29v175.55h-17.88c-11.92,0-18.61-0.69-20.07-2.06
	c-1.25-1.18-1.99-18.53-2.2-52.05l-0.31-50.28l-18.82,29.99c-11.71,19.41-18.29,29.41-19.76,29.99c-0.63,0.39-7.63-9.61-21.01-29.99
	l-19.44-30.88v105.27H188.64"/>
<text transform="matrix(1 0 0 1 33.6196 596.9209)"><tspan x="0" y="0" class="st1 st2">Share what’s good! </tspan><tspan x="0" y="43.2" class="st1 st2">Follow us on Twitter @SignProtest</tspan></text>
</svg>
